<svg width="16" height="16" viewBox="0 0 16 16" fill="none" xmlns="http://www.w3.org/2000/svg">
<path d="M16 2.87237C15.405 3.13337 14.771 3.30637 14.11 3.39037C14.79 2.98437 15.309 2.34637 15.553 1.57737C14.919 1.95537 14.219 2.22237 13.473 2.37137C12.871 1.73037 12.013 1.33337 11.077 1.33337C9.261 1.33337 7.799 2.80737 7.799 4.61437C7.799 4.87437 7.821 5.12437 7.875 5.36237C5.148 5.22937 2.735 3.92237 1.114 1.93137C0.831 2.42237 0.665 2.98437 0.665 3.58937C0.665 4.72537 1.25 5.73237 2.122 6.31537C1.595 6.30537 1.078 6.15237 0.64 5.91137C0.64 5.92137 0.64 5.93437 0.64 5.94737C0.64 7.54137 1.777 8.86537 3.268 9.17037C3.001 9.24337 2.71 9.27837 2.408 9.27837C2.198 9.27837 1.986 9.26637 1.787 9.22237C2.212 10.5214 3.418 11.4764 4.852 11.5074C3.736 12.3804 2.319 12.9064 0.785 12.9064C0.516 12.9064 0.258 12.8944 0 12.8614C1.453 13.7984 3.175 14.3334 5.032 14.3334C11.068 14.3334 14.368 9.33337 14.368 4.99937C14.368 4.85437 14.363 4.71437 14.356 4.57537C15.007 4.11337 15.554 3.53637 16 2.87237Z" fill="white"/>
</svg>
