<svg width="16" height="16" viewBox="0 0 16 16" fill="none" xmlns="http://www.w3.org/2000/svg">
<path fill-rule="evenodd" clip-rule="evenodd" d="M13.456 2.75863C14.415 2.81263 14.886 2.95463 15.32 3.72663C15.772 4.49763 16 5.82563 16 8.16463V8.16763V8.17263C16 10.5006 15.772 11.8386 15.321 12.6016C14.887 13.3736 14.416 13.5136 13.457 13.5786C12.498 13.6336 10.089 13.6666 8.002 13.6666C5.911 13.6666 3.501 13.6336 2.543 13.5776C1.586 13.5126 1.115 13.3726 0.677 12.6006C0.23 11.8376 0 10.4996 0 8.17163V8.16963V8.16663V8.16363C0 5.82563 0.23 4.49763 0.677 3.72663C1.115 2.95363 1.587 2.81263 2.544 2.75763C3.501 2.69363 5.911 2.66663 8.002 2.66663C10.089 2.66663 12.498 2.69363 13.456 2.75863ZM11 8.16663L6 5.16663V11.1666L11 8.16663Z" fill="white"/>
</svg>
